<svg width="350" height="170" viewBox="0 0 350 170" fill="none" xmlns="http://www.w3.org/2000/svg">
<mask id="mask0_4_131" style="mask-type:alpha" maskUnits="userSpaceOnUse" x="0" y="0" width="350" height="170">
<rect width="350" height="170" fill="#FBFAFF"/>
</mask>
<g mask="url(#mask0_4_131)">
<g opacity="0.6">
<g opacity="0.1">
<rect width="37.5442" height="21.8739" rx="10.937" transform="matrix(-0.720068 -0.693903 0.7198 -0.694182 130.974 82.4839)" fill="#5D3BEE"/>
<rect width="99.2325" height="21.8739" rx="10.937" transform="matrix(-0.720068 -0.693903 0.7198 -0.694182 210.553 157.627)" fill="#5D3BEE"/>
<rect width="249.638" height="21.8739" rx="10.937" transform="matrix(-0.720068 -0.693903 0.7198 -0.694182 289.948 183.187)" fill="#5D3BEE"/>
<rect width="93.083" height="21.8739" rx="10.937" transform="matrix(-0.720068 -0.693904 0.719799 -0.694182 231.479 78.7883)" fill="#5D3BEE"/>
</g>
<g opacity="0.1">
<rect width="99.2325" height="21.8739" rx="10.937" transform="matrix(-0.720068 -0.693903 0.7198 -0.694182 307.193 147.02)" fill="#5D3BEE"/>
<rect width="249.638" height="21.8739" rx="10.937" transform="matrix(-0.720068 -0.693903 0.7198 -0.694182 386.588 172.581)" fill="#5D3BEE"/>
<rect width="93.083" height="21.8739" rx="10.937" transform="matrix(-0.720068 -0.693903 0.7198 -0.694182 328.119 68.1816)" fill="#5D3BEE"/>
</g>
</g>
</g>
</svg>
