<svg width="570" height="234" viewBox="0 0 570 234" fill="none" xmlns="http://www.w3.org/2000/svg">
<mask id="mask0_1_146" style="mask-type:alpha" maskUnits="userSpaceOnUse" x="0" y="0" width="570" height="234">
<rect width="570" height="234" fill="#FBFAFF"/>
</mask>
<g mask="url(#mask0_1_146)">
<g opacity="0.6">
<g opacity="0.1">
<rect width="63.715" height="37.1214" rx="18.5607" transform="matrix(-0.720068 -0.693903 0.7198 -0.694182 230.62 108.414)" fill="#5D3BEE"/>
<rect width="168.404" height="37.1214" rx="18.5607" transform="matrix(-0.720068 -0.693903 0.7198 -0.694182 365.671 235.937)" fill="#5D3BEE"/>
<rect width="423.652" height="37.1214" rx="18.5607" transform="matrix(-0.720068 -0.693903 0.7198 -0.694182 500.409 279.314)" fill="#5D3BEE"/>
<rect width="157.968" height="37.1214" rx="18.5607" transform="matrix(-0.720068 -0.693903 0.7198 -0.694182 401.183 102.142)" fill="#5D3BEE"/>
<rect width="157.968" height="37.1214" rx="18.5607" transform="matrix(-0.720068 -0.693903 0.7198 -0.694182 603.827 299.383)" fill="#5D3BEE"/>
</g>
<g opacity="0.1">
<rect width="63.715" height="37.1214" rx="18.5607" transform="matrix(-0.720068 -0.693903 0.7198 -0.694182 394.62 90.4141)" fill="#5D3BEE"/>
<rect width="168.404" height="37.1214" rx="18.5607" transform="matrix(-0.720068 -0.693903 0.7198 -0.694182 529.675 217.937)" fill="#5D3BEE"/>
<rect width="423.652" height="37.1214" rx="18.5607" transform="matrix(-0.720068 -0.693903 0.7198 -0.694182 664.413 261.314)" fill="#5D3BEE"/>
<rect width="157.968" height="37.1214" rx="18.5607" transform="matrix(-0.720068 -0.693903 0.7198 -0.694182 565.187 84.1426)" fill="#5D3BEE"/>
</g>
</g>
</g>
</svg>
